<svg id="Layer_1" data-name="Layer 1" xmlns="http://www.w3.org/2000/svg" viewBox="0 0 30 30"><defs><style>.cls-1{fill:#3c0094;}.cls-2{fill:#fff;}</style></defs><rect class="cls-1" width="30" height="30"/><path class="cls-2" d="M12.94,17.65h0V11.91l5.39,2.88Zm11.84-6.73a4.45,4.45,0,0,0-.79-2A2.86,2.86,0,0,0,22,8c-2.79-.2-7-.2-7-.2h0s-4.2,0-7,.2a2.86,2.86,0,0,0-2,.87,4.45,4.45,0,0,0-.79,2,31.43,31.43,0,0,0-.2,3.3v1.55a31.75,31.75,0,0,0,.2,3.31,4.43,4.43,0,0,0,.79,2,3.35,3.35,0,0,0,2.2.88c1.6.15,6.79.2,6.79.2s4.2,0,7-.21a2.81,2.81,0,0,0,2-.87,4.43,4.43,0,0,0,.79-2,31.75,31.75,0,0,0,.2-3.31V14.22a31.43,31.43,0,0,0-.2-3.3"/><polygon class="cls-2" points="12.93 17.63 12.93 17.63 12.93 11.86 12.93 17.63"/></svg>